<svg width="108" height="35" viewBox="0 0 108 35" fill="none" xmlns="http://www.w3.org/2000/svg">
<rect y="1.21539" width="30" height="30" rx="2" fill="#020000"/>
<path d="M20.8748 23.6055H13.1697L11.7048 28H7.03198L14.9714 6.67188H19.0437L27.0271 28H22.3542L20.8748 23.6055ZM14.3562 20.0459H19.6882L17.0076 12.0625L14.3562 20.0459Z" fill="white"/>
<path d="M36.1528 13.4745L36.2319 15.2675C37.3218 13.8964 38.7456 13.2108 40.5034 13.2108C43.5181 13.2108 45.0386 14.9115 45.0649 18.3129V27.7391H42.626V18.2997C42.6172 17.2714 42.3799 16.5111 41.9141 16.0189C41.457 15.5267 40.7407 15.2806 39.7651 15.2806C38.9741 15.2806 38.2798 15.4916 37.6821 15.9135C37.0845 16.3353 36.6187 16.889 36.2847 17.5746V27.7391H33.8457V13.4745H36.1528ZM48.0972 20.475C48.0972 19.0775 48.3696 17.8207 48.9146 16.7045C49.4683 15.5883 50.2329 14.7269 51.2085 14.1205C52.1929 13.514 53.3135 13.2108 54.5703 13.2108C56.5127 13.2108 58.0815 13.8832 59.2769 15.2279C60.481 16.5726 61.083 18.3612 61.083 20.5936V20.765C61.083 22.1537 60.8149 23.4017 60.2788 24.5092C59.7515 25.6078 58.9912 26.4647 57.998 27.08C57.0137 27.6952 55.8799 28.0028 54.5967 28.0028C52.6631 28.0028 51.0942 27.3304 49.8901 25.9857C48.6948 24.641 48.0972 22.8612 48.0972 20.6464V20.475ZM50.5493 20.765C50.5493 22.347 50.9141 23.6171 51.6436 24.5751C52.3818 25.5331 53.3662 26.0121 54.5967 26.0121C55.8359 26.0121 56.8203 25.5287 57.5498 24.5619C58.2793 23.5863 58.644 22.224 58.644 20.475C58.644 18.9105 58.2705 17.6449 57.5234 16.6781C56.7852 15.7025 55.8008 15.2147 54.5703 15.2147C53.3662 15.2147 52.395 15.6937 51.6567 16.6517C50.9185 17.6097 50.5493 18.9808 50.5493 20.765ZM66.4487 13.4745L66.5278 15.2675C67.6177 13.8964 69.0415 13.2108 70.7993 13.2108C73.814 13.2108 75.3345 14.9115 75.3608 18.3129V27.7391H72.9219V18.2997C72.9131 17.2714 72.6758 16.5111 72.21 16.0189C71.7529 15.5267 71.0366 15.2806 70.061 15.2806C69.27 15.2806 68.5757 15.4916 67.978 15.9135C67.3804 16.3353 66.9146 16.889 66.5806 17.5746V27.7391H64.1416V13.4745H66.4487ZM81.689 27.7391H79.25V13.4745H81.689V27.7391ZM79.0522 9.6908C79.0522 9.29529 79.1709 8.9613 79.4082 8.68884C79.6543 8.41638 80.0146 8.28015 80.4893 8.28015C80.9639 8.28015 81.3242 8.41638 81.5703 8.68884C81.8164 8.9613 81.9395 9.29529 81.9395 9.6908C81.9395 10.0863 81.8164 10.4159 81.5703 10.6796C81.3242 10.9432 80.9639 11.0751 80.4893 11.0751C80.0146 11.0751 79.6543 10.9432 79.4082 10.6796C79.1709 10.4159 79.0522 10.0863 79.0522 9.6908ZM87.8984 13.4745L87.9644 15.0565C89.0103 13.826 90.4209 13.2108 92.1963 13.2108C94.1914 13.2108 95.5493 13.9755 96.27 15.5048C96.7446 14.8192 97.3599 14.2655 98.1157 13.8436C98.8804 13.4218 99.7812 13.2108 100.818 13.2108C103.947 13.2108 105.538 14.8676 105.591 18.181V27.7391H103.152V18.326C103.152 17.3065 102.919 16.5463 102.453 16.0453C101.987 15.5355 101.205 15.2806 100.106 15.2806C99.2012 15.2806 98.4497 15.5531 97.8521 16.098C97.2544 16.6342 96.9072 17.3593 96.8105 18.2733V27.7391H94.3584V18.392C94.3584 16.3177 93.3433 15.2806 91.313 15.2806C89.7134 15.2806 88.6191 15.9618 88.0303 17.3241V27.7391H85.5913V13.4745H87.8984Z" fill="black"/>
</svg>
